<?xml version="1.0" encoding="UTF-8"?>
<!DOCTYPE svg PUBLIC "-//W3C//DTD SVG 1.1//EN" "http://www.w3.org/Graphics/SVG/1.1/DTD/svg11.dtd">
<!-- Creator: CorelDRAW 2020 (64 Bit) -->
<svg xmlns="http://www.w3.org/2000/svg" xml:space="preserve" width="86.3731mm" height="86.3731mm" version="1.1" style="shape-rendering:geometricPrecision; text-rendering:geometricPrecision; image-rendering:optimizeQuality; fill-rule:evenodd; clip-rule:evenodd"
viewBox="0 0 3371.47 3371.47"
 xmlns:xlink="http://www.w3.org/1999/xlink"
 xmlns:xodm="http://www.corel.com/coreldraw/odm/2003">
 <defs>
  <style type="text/css">
   <![CDATA[
    .fil0 {fill:none}
   ]]>
  </style>
 </defs>
 <g id="Camada_x0020_1">
  <metadata id="CorelCorpID_0Corel-Layer"/>
  <path class="fil0" d="M5.69 1823.86l0 -0c-75.97,-924.02 617.89,-1742.2 1541.92,-1818.17l0 0c924.02,-75.97 1742.19,617.89 1818.17,1541.92l0 0c75.97,924.02 -617.89,1742.19 -1541.92,1818.17l-0 0c-924.02,75.97 -1742.2,-617.89 -1818.17,-1541.92zm2571.83 356.23c-35.19,-427.99 -241.72,-815.62 -547.18,-1096.32 -305.46,-280.7 -709.86,-454.49 -1140.78,-454.8 -78.35,-0.06 -136.68,62.98 -130.28,140.8 6.4,77.81 75.1,140.95 153.45,141.01 352.59,0.26 683.47,142.45 933.38,372.09 169.9,155.98 302.87,352.53 378.8,572.24 5.51,13.55 9.09,27.98 10.32,42.93l0 0c6.37,77.5 -52.25,140.86 -130.27,140.8l-3.11 -0 -38.85 -0.03 -1057.57 -0.79c-78.05,-0.06 -136.67,63.3 -130.3,140.8l0 0c6.37,77.5 75.42,140.95 153.47,141.01l1418.66 1.06c78.01,0.06 136.64,-63.3 130.26,-140.8z"/>
 </g>
</svg>
