<svg clip-rule="evenodd" fill-rule="evenodd" height="86.3731" image-rendering="optimizeQuality" shape-rendering="geometricPrecision" text-rendering="geometricPrecision" viewBox="0 0 3371.47 3371.47" width="86.3731" xmlns="http://www.w3.org/2000/svg"><path d="m5.69 1823.86c-75.97-924.02 617.89-1742.2 1541.92-1818.17 924.02-75.97 1742.19 617.89 1818.17 1541.92 75.97 924.02-617.89 1742.19-1541.92 1818.17-924.02 75.97-1742.2-617.89-1818.17-1541.92zm2571.83 356.23c-35.19-427.99-241.72-815.62-547.18-1096.32s-709.86-454.49-1140.78-454.8c-78.35-.06-136.68 62.98-130.28 140.8 6.4 77.81 75.1 140.95 153.45 141.01 352.59.26 683.47 142.45 933.38 372.09 169.9 155.98 302.87 352.53 378.8 572.24 5.51 13.55 9.09 27.98 10.32 42.93 6.37 77.5-52.25 140.86-130.27 140.8h-3.11l-38.85-.03-1057.57-.79c-78.05-.06-136.67 63.3-130.3 140.8s75.42 140.95 153.47 141.01l1418.66 1.06c78.01.06 136.64-63.3 130.26-140.8z" fill="none"/></svg>