<svg clip-rule="evenodd" fill-rule="evenodd" height="86.3731" image-rendering="optimizeQuality" shape-rendering="geometricPrecision" text-rendering="geometricPrecision" viewBox="0 0 37633.30000000001 8661.85" width="375.267" xmlns="http://www.w3.org/2000/svg"><g fill="#f22e7f"><g fill-rule="nonzero"><path d="m23959.81 1494.23c1436.08 0 2687.97 582.13 3551.01 1523.26 863.06 941.13 1337.31 2241.32 1218.16 3677.38-21.66 261.11-250.9 472.79-512.01 472.79s-455.23-211.68-433.56-472.79c97.49-1175.02-290.52-2238.84-996.61-3008.82-479.55-523.48-1106.42-912.82-1827.49-1105.67-44.25-14.66-92-22.62-142.17-22.62-260.03 0-490.43 212.74-512 472.73l-.86 10.39-10.74 129.47-292.43 3524.48c-21.57 260.11-251.98 472.85-512.01 472.85-260.04 0-455.14-212.74-433.56-472.85l392.26-4727.85c21.57-259.99 251.97-472.72 512.01-472.72z"/><path d="m11216.59 7167.66c1436.08 0 2784.57-582.14 3803.78-1523.27 1019.22-941.13 1709.22-2241.32 1828.37-3677.38 21.66-261.11-172.45-472.78-433.56-472.78s-490.35 211.67-512.01 472.78c-97.5 1175.03-662.03 2238.84-1495.89 3008.82-566.41 523.49-1257.89 912.82-2010.95 1105.67-46.68 14.66-95.76 22.62-145.93 22.62-260.03 0-455.14-212.73-433.56-472.73l.85-10.38 10.75-129.48 292.42-3524.48c21.57-260.11-173.53-472.84-433.56-472.84-260.04 0-490.44 212.73-512.02 472.84l-392.26 4727.85c-21.57 259.99 173.53 472.73 433.57 472.73z"/><path d="m37631.69 1963.78-392.79 4734.3c-21.43 258.3-251.71 469.56-511.74 469.56-260.04 0-455.26-211.26-433.83-469.56l392.79-4734.3c21.43-258.29 251.71-469.56 511.74-469.56 260.04 0 455.26 211.27 433.83 469.56z"/><path d="m18720.58 3858.15h1246.28c260.04 0 455.14 212.74 433.57 472.79-21.58 260.04-251.98 472.79-512.02 472.79h-1888.26c-147.27 253.86-270.9 522.09-367.2 801.52-18.42 45.46-30.41 93.88-34.57 144.05-21.57 260.03 173.51 472.78 433.51 472.78h10.38 129.47 3524.51c260.11 0 455.19 212.75 433.62 472.79-21.58 260.03-251.96 472.79-512.07 472.79h-4727.88c-259.99 0-455.08-212.76-433.5-472.79 119.15-1436.08 809.15-2736.25 1828.37-3677.38 1019.21-941.13 2367.72-1523.26 3803.78-1523.26 261.11 0 455.23 211.67 433.56 472.78-21.66 261.11-250.9 472.79-512.01 472.79-1175.03 0-2278.38 476.26-3112.24 1246.24-60.52 55.84-119.64 113.23-177.28 172.11z"/><path d="m30578.84 1494.23c1436.08 0 2687.97 582.13 3551.02 1523.26s1337.31 2241.32 1218.16 3677.38c-21.67 261.11-250.91 472.79-512.02 472.79s-455.22-211.68-433.56-472.79c97.49-1175.02-290.51-2238.84-996.61-3008.82-479.55-523.48-1106.42-912.82-1827.48-1105.67-44.25-14.66-92-22.62-142.17-22.62-260.04 0-490.44 212.74-512.01 472.73l-.86 10.39-10.74 129.47-292.42 3524.48c-21.58 260.11-251.98 472.85-512.02 472.85-260.03 0-455.14-212.74-433.56-472.85l392.26-4727.85c21.57-259.99 251.97-472.72 512.01-472.72z"/></g><path d="m14.62 4685.8v-.01c-195.17-2373.97 1587.47-4475.99 3961.43-4671.16h.01c2373.97-195.17 4475.98 1587.47 4671.16 3961.43v.01c195.17 2373.97-1587.47 4475.98-3961.43 4671.16h-.01c-2373.97 195.17-4475.99-1587.47-4671.16-3961.43zm6607.45 915.2c-90.4-1099.59-621.02-2095.47-1405.79-2816.62-784.78-721.15-1823.77-1167.65-2930.84-1168.47-201.3-.15-351.15 161.81-334.72 361.73 16.44 199.93 192.95 362.14 394.24 362.29 905.86.67 1755.94 365.97 2398 955.97 436.49 400.74 778.12 905.69 973.21 1470.17 14.16 34.82 23.35 71.89 26.51 110.3 16.37 199.1-134.24 361.89-334.68 361.74l-8-.01-99.8-.07-2717.09-2.04c-200.52-.15-351.12 162.63-334.76 361.73 16.38 199.1 193.77 362.13 394.29 362.29l3644.78 2.72c200.43.15 351.04-162.63 334.67-361.73z"/></g></svg>